<svg xmlns="http://www.w3.org/2000/svg" width="373" height="276" fill="none" viewBox="0 0 373 276">
  <g clip-path="url(#clip0_10_2)">
    <path fill="#E6E6E6" d="M337.752 274.722h-79.089v-2.425c0-2.105.837-4.123 2.327-5.612a7.951 7.951 0 015.619-2.324h63.198a7.95 7.95 0 015.618 2.324 7.933 7.933 0 012.327 5.612v2.425z"/>
    <path fill="#E6E6E6" d="M296.357 264.845l2.405-.968c-25.165-62.395-22.741-141.113-1.468-208.638a42.12 42.12 0 00.524-24.14 42.154 42.154 0 00-12.822-20.47C272.649-.378 255.626-3.06 240.568 3.63c-14.863 6.604-16.911 18.107-16.911 29.555h2.593c0-12.22 2.614-21.52 15.372-27.189 14.113-6.269 30.071-3.754 41.648 6.565a39.594 39.594 0 0112.043 19.225 39.558 39.558 0 01-.493 22.674c-21.518 68.305-23.8 147.563 1.537 210.384z"/>
    <path fill="#E6E6E6" d="M225.602 71.391c5.012 0 9.075-4.059 9.075-9.066 0-5.006-4.063-9.065-9.075-9.065-5.013 0-9.076 4.059-9.076 9.066 0 5.006 4.063 9.065 9.076 9.065zM211.624 78.13V60.952h2.674V78.13a3.561 3.561 0 01-1.337 6.863 3.566 3.566 0 01-3.5-2.882 3.561 3.561 0 012.163-3.981z"/>
    <path fill="#DA244B" d="M198.698 47.756a14.905 14.905 0 014.372-10.527 14.937 14.937 0 0110.539-4.367h24.634c3.954 0 7.747 1.57 10.543 4.362a14.886 14.886 0 010 21.063 14.919 14.919 0 01-10.543 4.362h-24.634a14.937 14.937 0 01-10.539-4.367 14.905 14.905 0 01-4.372-10.526zM163.99 139.986c2.473-31.608 15.119-46.668 7.022-56.112-7.757-9.047-29.605-7.178-43.636 1.503-37.846 23.414-51.711 116.732-3.01 162.326 46.279 43.325 133.987 29.449 153.479-6.012 4.548-8.274 8.161-22.779 1.504-31.564-16.525-21.809-76.608 17.693-103.322-7.014-15.831-14.642-13.395-45.78-12.037-63.127z"/>
    <path fill="#FFB6B6" d="M192.92 124.283a3.88 3.88 0 00-1.949 5.05c.084.187.183.368.297.539l-8.124 10.834 4.054 6.052 9.521-16.044a3.863 3.863 0 001.179-4.574 3.698 3.698 0 00-2.049-1.96 3.712 3.712 0 00-2.837.061c-.031.013-.062.028-.092.042z"/>
    <path fill="#6C63FF" d="M192.913 142.963c.532.471-.943 1.052-2.503.135-.446-.265-.637-.376-.687-.305-.125.175.607 1.467.411 4.338-.12 1.714-2.969 4.935-6.204 8.076-4.374 4.249-9.459 8.347-9.459 8.347l-1.786-1.428-18.723-14.995-3.16-4.369a31.073 31.073 0 011.299-5.075 55.245 55.245 0 012.819-6.683 79.371 79.371 0 011.75-3.332l10.031 11.042 8.407 9.249s2.447-3.938 4.343-5.01c.242-.154.517-.249.803-.276 1.916-.09 2.031-1.132-.191-3.401-2.222-2.27.582-.151 2.558-.762s0 0 .416-1.528c.417-1.528 5.959-4.594 5.959-4.594l.231.205 4.188 3.693 1.198 1.057s-1.309 3.587-1.67 4.343c-.361.757-.557.797-.03 1.273z"/>
    <path fill="#FFB6B6" d="M303.316 212.561l.204-5.527-21.242-3.416-.302 8.156 21.34.787z"/>
    <path fill="#2F2E41" d="M299.46 214.224l-.202-8.848 3.787.14 6.114-8.18a2.369 2.369 0 013.854.084c.283.417.427.914.408 1.417l-.388 10.511-3.813 1.674 3.72.845-.147 3.963-13.333-1.606zM183.763 214.712l67.282 1.704s29.054 1.676 35.871-2.753l7.188-.907.39-10.547s-4.396.032-6.923-1.144c-2.528-1.176-.771-2.616-3.181-1.201-2.409 1.416-2.155 1.586-4.018.936-1.863-.651-87.297-13.658-87.297-13.658l-9.312 27.57z"/>
    <path fill="#FFB6B6" d="M272.422 210.135l3.913-3.912-13.247-16.936-5.774 5.774 15.108 15.074z"/>
    <path fill="#2F2E41" d="M268.463 206.731l5.877-6.623 2.681 2.675 10.051-1.843a2.364 2.364 0 012.102 3.996l-7.441 7.442-3.935-1.364 2.151 3.147-2.805 2.806-8.681-10.236zM157.219 177.905l.669 15.531c.787 18.284 20.945 29.35 36.575 19.804.289-.176.578-.359.868-.547 0 0 5.925-1.59 5.745-4.107-.18-2.517 1.268-3.743 2.549-3.056 1.281.686 18.054-23.092 18.054-23.092s34.85 17.365 42.538 21.452c0 0 7.228-11.289 6.704-11.171-.524.119-43.113-29.657-43.113-29.657s-6.938-7.014-15.545-2.383c-.179.681-.026.704-.026.704l-28.43 23.141-4.018-7.621-22.57 1.002z"/>
    <path fill="#6C63FF" d="M184.025 158.489a15.963 15.963 0 01-.306 2.134 12.538 12.538 0 01-.983 2.946s0 1.047-2.006 4.555c-2.006 3.507.502 2.004 2.006 4.609 1.505 2.6 0 1.403-1.67 3.076a3.832 3.832 0 00-.948 3.773s-21.547.015-25.56-1.488c-4.012-1.503-4.925-9.97-1.329-10.807 3.591-.837-1.088-1.669-3.2-3.597-2.111-1.929 2.112-5.086 2.112-5.086s-1.741-3.001-1.595-13.076c.02-.927.106-1.851.256-2.765a31.058 31.058 0 011.299-5.076 55.245 55.245 0 012.819-6.683 79.371 79.371 0 011.75-3.332c.09-.16.176-.315.266-.471a83.97 83.97 0 012.738-4.504c.507-.781.813-1.222.813-1.222l3.651-6.343 12.188 5.706-.692 9.334 2.102 7.039.968 3.242.747 2.5 1.154 3.873s-.316.015.06.531a17.104 17.104 0 013.265 7.851c.144 1.087.176 2.187.095 3.281z"/>
    <path fill="#2F2E41" d="M219.223 159.495l-.229-.074-29.171-9.383 10.749-35.227a4.854 4.854 0 012.883-3.103 4.846 4.846 0 014.224.344l18.642 11.002a7.297 7.297 0 013.138 8.823l-10.236 27.618z"/>
    <path fill="#DA244B" d="M218.341 161.734l-29.406-9.458 10.75-35.227a4.842 4.842 0 012.882-3.103 4.848 4.848 0 014.225.344l19.531 9.741c2.935 1.731 2.866 6.212 1.503 9.889l-9.485 27.814z"/>
    <path fill="#3F3D56" d="M216.397 164.284a5.609 5.609 0 01-4.494.447l-18.796-6.047a5.806 5.806 0 01-3.761-7.187l9.423-30.88a4.847 4.847 0 014.249-3.417 4.858 4.858 0 011.904.226l19.478 6.389a7.301 7.301 0 014.601 9.404l-10.075 28.058a5.612 5.612 0 01-2.529 3.007z"/>
    <path fill="#FFB6B6" d="M175.637 115.24c7.435 0 13.463-6.02 13.463-13.447s-6.028-13.448-13.463-13.448-13.462 6.021-13.462 13.448c0 7.427 6.027 13.447 13.462 13.447z"/>
    <path fill="#2F2E41" d="M130.114 115.443a11.668 11.668 0 005.733 5.354 13.45 13.45 0 003.09.977 12.02 12.02 0 011.43-3.381 9.92 9.92 0 000 3.571c1.623.133 3.256-.07 4.798-.595a10.286 10.286 0 006.473-6.55c1.072-3.564-.083-7.371-.174-11.092-.094-3.721 1.675-8.172 5.373-8.632 2.816-.351 2.468-.079 4.492 1.909-2.831 3.141 4.07 17.052 7.772 16.437 2.094-.347 3.635-2.008 4.049-1.95 2.12 5.187-4.258 12.542.8 14.957l-.375-.496c-2.648-4.369 5.187-11.749 2.539-16.118-.738-1.222-1.505-2.655-1.049-4.007.434-1.286 2.629-1.693 3.092-.523-.753-2.681 1.349-5.83 4.14-6.103 2.48-.244 2.337.462 4.702 1.106a12.01 12.01 0 011.295-2.894 9.858 9.858 0 00-.069 3.123 3.9 3.9 0 002.453-.519c2.184-1.307 2.249-4.682.749-6.737-1.503-2.054-4.02-3.069-6.448-3.836-.022-5.13-13.841-7.586-16.382-2.816-.262-3.862-4.693-6.463-8.511-5.807-3.817.656-6.829 3.713-8.665 7.121-1.836 3.406-2.747 7.219-4.091 10.846-1.344 3.627-3.265 7.244-6.483 9.396-3.218 2.15-8 2.345-10.686-.441a8.506 8.506 0 00-.047 7.7z"/>
    <path fill="#DA244B" d="M143.927 176.937c.279-.222.581-.413.901-.57 5.153-2.561 21.177-9.211 33.707-8.938 24.108.525 54.789 27.102 47.649 44.949-5.434 13.58-32.445 21.306-52.163 15.127-27.623-8.657-38.526-43.852-30.094-50.568z"/>
    <path fill="#F2F2F2" d="M43.844 274.773c-7.877-1.485-14.85-36.935.648-54.394 5.31-5.982 11.934-8.586 20.745-11.009 50.712-13.946 89.391-.655 94.589 2.59 5.186 3.238 14.278 52.022 2.651 58.927-6.541 3.886-19.506 5.828-25.93 1.296-9.453-6.67 6.413-23.971-.649-35.616-8.013-13.214-50.212-17.666-71.368-4.532-22.572 14.011 23.986 51.156-20.686 42.738z"/>
    <path fill="#CCC" d="M96.513 214.5H66.417c-7.429-7.113-12.74-13.967-8.488-19.656 0-1.636.65-3.204 1.808-4.361a6.179 6.179 0 014.366-1.806h34.725a6.18 6.18 0 014.365 1.806 6.163 6.163 0 011.808 4.361c1.619 6.483-1.274 13.036-8.488 19.656z"/>
    <path fill="#CCC" d="M91.108 180.914a1.393 1.393 0 01-1.01-2.413l.095-.38-.038-.091a3.739 3.739 0 00-3.462-2.281 3.745 3.745 0 00-3.444 2.307c-1.13 2.717-2.567 5.439-2.921 8.312a11.05 11.05 0 00.194 3.805 44.313 44.313 0 01-4.04-18.422c0-1.596.089-3.19.267-4.776.146-1.3.35-2.591.61-3.872a44.845 44.845 0 018.908-19.017 11.943 11.943 0 004.972-5.152 9.11 9.11 0 00.83-2.489c-.243.031-.913-3.651-.73-3.877-.338-.511-.942-.765-1.31-1.264-1.832-2.481-4.356-2.048-5.674 1.324-2.815 1.419-2.842 3.773-1.115 6.036 1.099 1.44 1.25 3.389 2.214 4.931-.1.127-.202.249-.302.376a45.15 45.15 0 00-4.718 7.467 18.751 18.751 0 00-1.122-8.719c-1.074-2.588-3.087-4.768-4.86-7.005-2.13-2.687-6.495-1.514-6.87 1.892l-.011.099c.263.148.52.306.773.473a1.886 1.886 0 01-.762 3.437l-.039.006c.094.948.26 1.887.496 2.81-2.274 8.785 2.636 11.984 9.646 12.128.155.079.305.159.46.234a46.05 46.05 0 00-2.484 11.676c-.18 2.35-.169 4.711.032 7.059l-.012-.083a11.555 11.555 0 00-3.948-6.671c-3.038-2.493-7.33-3.411-10.608-5.414a2.167 2.167 0 00-2.337-.006 2.168 2.168 0 00-.974 2.202 12.728 12.728 0 012.198 1.158 1.894 1.894 0 01.795 1.98 1.888 1.888 0 01-1.558 1.458l-.038.006-.08.012a18.81 18.81 0 003.464 5.418c1.422 7.668 7.53 8.396 14.062 6.163h.004a46.027 46.027 0 003.1 9.036h11.07c.04-.122.075-.249.11-.372a12.63 12.63 0 01-3.063-.182c.822-1.007 1.643-2.022 2.464-3.029a.542.542 0 00.052-.059c.417-.515.837-1.027 1.254-1.542.022-1.58-.16-3.155-.54-4.689zM128.866 212.889a2.674 2.674 0 002.577 1.803l11.041-.284a2.636 2.636 0 002.492-1.939l1.562-16.687c.555.25 1.158.374 1.767.362a4.029 4.029 0 003.924-4.121 4.028 4.028 0 00-4.127-3.92 3.381 3.381 0 00-.723.075 2.729 2.729 0 00-2.031-.875l-16.983.438a2.365 2.365 0 00-.419.052 2.651 2.651 0 00-2.031 3.44l2.951 21.656zm17.993-18.241l1.112-3.976a2.71 2.71 0 00.008-1.405c.054 0 .102-.026.156-.026a2.883 2.883 0 012.938 2.809 2.88 2.88 0 01-2.804 2.943 2.716 2.716 0 01-1.41-.345z"/>
    <path fill="#fff" d="M127.946 187.793c.362 2.066 4.43 3.519 9.321 3.266 4.498-.207 8.176-1.784 8.849-3.654a2.493 2.493 0 00-.768-.102l-16.983.438a2.365 2.365 0 00-.419.052z"/>
    <path fill="#CACACA" d="M.591 275.555l371.818.153a.595.595 0 00.591-.591.59.59 0 00-.591-.591L.591 274.374a.59.59 0 100 1.181z"/>
    <path fill="#FFB6B6" d="M209.132 143.559a3.882 3.882 0 00-3.742 3.913c.005.205.027.41.066.611l-11.669 6.882 1.412 7.143 14.965-11.153a3.873 3.873 0 002.849-3.77 3.712 3.712 0 00-1.137-2.597 3.708 3.708 0 00-2.642-1.033l-.102.004z"/>
    <path fill="#6C63FF" d="M199.573 159.964c-.312-.418-.446-.593-.517-.545-.183.11-.007 1.586-1.292 4.158-1.81 3.614-20.779 9.148-20.779 9.148l-2.336-4.271-10.273-18.769-3.541-15.045a6.691 6.691 0 01-.179-1.601 63.644 63.644 0 0110.017-5.759 6.7 6.7 0 013.009 3.581l7.072 19.806 2.822 7.908s4.977-3.555 6.783-2.903c1.803.657 2.315-.264 1.137-3.212-1.179-2.947.59.087 2.648.28 2.063.196 0 0 .974-1.251.975-1.251 7.273-1.955 7.273-1.955l.134.28 2.44 5.015.699 1.441s-2.587 2.804-3.212 3.363c-.627.563-.821.524-.514 1.165.303.639-1.281.61-2.365-.834z"/>
  </g>
  <defs>
    <clipPath id="clip0_10_2">
      <path fill="#fff" d="M0 0h373v276H0z"/>
    </clipPath>
  </defs>
</svg>
